<svg xmlns="http://www.w3.org/2000/svg" width="1400" height="900" viewBox="0 0 1400 900">
  <rect width="1400" height="900" fill="#eef3f8"/><rect width="190" height="900" fill="#172033"/>
  <text x="28" y="48" fill="#fff" font-family="Arial" font-size="19" font-weight="700">School Equity</text><text x="28" y="72" fill="#fff" font-family="Arial" font-size="19" font-weight="700">Resource Monitor</text>
  <rect x="16" y="248" width="158" height="42" rx="5" fill="#28445f"/><text x="31" y="275" fill="#fff" font-family="Arial" font-size="14">Action plans</text>
  <text x="226" y="52" fill="#075985" font-family="Arial" font-size="13" font-weight="700" letter-spacing="2">ACTION PLAN · ILLUSTRATIVE MOCKUP</text><text x="226" y="91" fill="#172033" font-family="Arial" font-size="30" font-weight="700">30-day school support review</text><text x="226" y="120" fill="#64748b" font-family="Arial" font-size="15">DBN 01M292 · Female vs. Male attendance and graduation signals</text>
  <rect x="226" y="148" width="1140" height="62" rx="8" fill="#fff" stroke="#dbe3ee"/><text x="246" y="176" fill="#64748b" font-family="Arial" font-size="11" font-weight="700">OWNER</text><text x="246" y="197" fill="#172033" font-family="Arial" font-size="14" font-weight="700">District support team · Manhattan</text><text x="1015" y="176" fill="#64748b" font-family="Arial" font-size="11" font-weight="700">STATUS</text><text x="1015" y="197" fill="#b45309" font-family="Arial" font-size="14" font-weight="700">In progress</text>
  <rect x="226" y="230" width="750" height="490" rx="8" fill="#fff" stroke="#dbe3ee"/><text x="250" y="269" fill="#172033" font-family="Arial" font-size="18" font-weight="700">Review actions</text>
  <g font-family="Arial"><circle cx="260" cy="323" r="12" fill="#15803d"/><text x="256" y="328" fill="#fff" font-size="12" font-weight="700">✓</text><text x="292" y="321" fill="#172033" font-size="14" font-weight="700">Audit students missing 10%+ attendance</text><text x="292" y="345" fill="#64748b" font-size="12">Owner: Attendance team · completed</text><line x1="250" y1="370" x2="950" y2="370" stroke="#dbe3ee"/>
  <circle cx="260" cy="420" r="12" fill="#075985"/><text x="256" y="425" fill="#fff" font-size="12" font-weight="700">2</text><text x="292" y="418" fill="#172033" font-size="14" font-weight="700">Review credit accumulation by subgroup</text><text x="292" y="442" fill="#64748b" font-size="12">Owner: Principal + counselor lead · due in 10 days</text><line x1="250" y1="467" x2="950" y2="467" stroke="#dbe3ee"/>
  <circle cx="260" cy="517" r="12" fill="#075985"/><text x="256" y="522" fill="#fff" font-size="12" font-weight="700">3</text><text x="292" y="515" fill="#172033" font-size="14" font-weight="700">Compare counselor and intervention capacity</text><text x="292" y="539" fill="#64748b" font-size="12">Owner: District operations · due in 15 days</text><line x1="250" y1="564" x2="950" y2="564" stroke="#dbe3ee"/>
  <circle cx="260" cy="614" r="12" fill="#cbd5e1"/><text x="256" y="619" fill="#64748b" font-size="12" font-weight="700">4</text><text x="292" y="612" fill="#172033" font-size="14" font-weight="700">Recheck attendance and graduation signals</text><text x="292" y="636" fill="#64748b" font-size="12">Review date: next reporting cycle</text></g>
  <rect x="1002" y="230" width="364" height="490" rx="8" fill="#fff" stroke="#dbe3ee"/><text x="1026" y="269" fill="#172033" font-family="Arial" font-size="18" font-weight="700">Follow-up evidence</text><g font-family="Arial"><text x="1026" y="315" fill="#64748b" font-size="11" font-weight="700">BASELINE</text><text x="1026" y="344" fill="#172033" font-size="24" font-weight="700">7.0 pp</text><text x="1026" y="367" fill="#64748b" font-size="12">Female–Male graduation gap</text><line x1="1026" y1="397" x2="1342" y2="397" stroke="#dbe3ee"/><text x="1026" y="432" fill="#64748b" font-size="11" font-weight="700">FOLLOW-UP TARGET</text><text x="1026" y="461" fill="#172033" font-size="24" font-weight="700">Review pending</text><text x="1026" y="484" fill="#64748b" font-size="12">No causal target assigned</text><line x1="1026" y1="514" x2="1342" y2="514" stroke="#dbe3ee"/><text x="1026" y="550" fill="#64748b" font-size="11" font-weight="700">RESOURCE LINK</text><text x="1026" y="578" fill="#075985" font-size="13" font-weight="700">Budget At A Glance →</text><text x="1026" y="615" fill="#64748b" font-size="11">Add validated budget data</text></g>
  <rect x="226" y="748" width="1140" height="58" rx="8" fill="#fff" stroke="#dbe3ee"/><text x="250" y="784" fill="#64748b" font-family="Arial" font-size="12">This workflow records decisions and follow-up; it does not rank schools by a hidden score.</text>
</svg>
